<svg xmlns="http://www.w3.org/2000/svg" xmlns:xlink="http://www.w3.org/1999/xlink" xmlns:xodm="http://www.corel.com/coreldraw/odm/2003" xml:space="preserve" width="179.437" height="65.2086" style="shape-rendering:geometricPrecision; text-rendering:geometricPrecision; image-rendering:optimizeQuality; fill-rule:evenodd; clip-rule:evenodd" viewBox="0 0 17943.72 6520.85"> <defs>  <style type="text/css">   <![CDATA[    .fil1 {fill:#FEFEFE}    .fil0 {fill:#FEFEFE;fill-rule:nonzero}   ]]>  </style> </defs> <g id="Camada_x0020_1">  <metadata id="CorelCorpID_0Corel-Layer"></metadata>  <path class="fil0" d="M17461.38 1247.22l0 38.81 321.52 0c25.23,0 46.1,2.07 62.68,6.01 16.58,4.09 29.69,10 39.22,17.82 9.48,7.72 16.11,17.3 20,28.65 3.94,11.29 5.85,24.19 5.75,38.8 0,10.37 -0.88,19.74 -2.54,27.98 -1.55,8.34 -3.63,15.54 -6.22,21.45l31.24 6.89c1.92,-4.25 3.68,-9.48 5.24,-15.75 1.65,-6.27 2.9,-13 3.99,-20.21 0.93,-7.2 1.45,-14.4 1.45,-21.6 0.1,-17.61 -2.33,-34.19 -7.31,-49.73 -5.13,-15.44 -13.47,-29.07 -25.18,-40.98 -11.76,-11.87 -27.61,-21.14 -47.5,-27.83 -19.95,-6.78 -44.82,-10.2 -74.56,-10.31l-327.78 0zm298.98 -68.95l0 -168.27 -32.48 0 0 168.27 32.48 0zm40.05 -445.5l0 -67.56 -30.62 0 0 67.56 -300.9 0 0 35.65 307.11 211.48 24.41 0 0 -209.57 135.78 0 0 -37.56 -135.78 0zm-31.87 205.16l-188.94 -131.33c-6.16,-3.78 -12.38,-7.51 -18.65,-11.3 -6.17,-3.73 -12.95,-7.56 -20.15,-11.76 -7.2,-4.09 -15.29,-8.44 -24.4,-13.21l0.67 -2.54c10.93,0.94 22.17,1.56 33.62,1.97 11.5,0.31 23.26,0.57 35.18,0.57l183.92 0 0 167.6 -1.25 0zm136.36 -587.5l0 220.86 -1.24 0 -37.46 -35.7c-27.09,-27.3 -52.43,-51.6 -76.1,-72.89 -23.68,-21.35 -46.37,-39.38 -68.18,-54.3 -21.71,-14.81 -43.37,-26.06 -64.76,-33.78 -21.4,-7.72 -43.37,-11.65 -65.9,-11.65 -11.76,0 -23.83,1.34 -35.96,4.25 -12.17,2.84 -23.83,7.4 -35.12,13.67 -11.14,6.17 -21.19,14.25 -29.95,24.2 -8.86,10 -15.85,21.96 -21.08,36.16 -5.08,14.14 -7.67,30.57 -7.77,49.32 0.1,15.85 2.07,30.83 6.11,45.02 4.09,14.2 9.53,27.3 16.53,39.43 6.83,12.02 14.76,22.95 23.62,32.53l26.16 -14.4c-6.53,-7.77 -12.9,-16.68 -18.96,-26.58 -6.01,-10 -11.03,-20.77 -14.87,-32.33 -3.99,-11.55 -5.96,-23.62 -6.06,-36.16 0.1,-18.39 3.01,-33.78 8.76,-46.11 5.75,-12.38 13.52,-22.22 23.36,-29.48 9.69,-7.2 20.72,-12.38 32.95,-15.54 12.18,-3.16 24.87,-4.71 37.92,-4.61 19.9,0 39.53,3.58 58.91,10.67 19.43,7.2 39.63,18.03 60.56,32.59 21.09,14.51 43.83,32.95 68.39,55.18 24.51,22.22 51.91,48.49 82.06,78.64l45.59 42.48 23.78 0 0 -271.47 -31.29 0zm-196.45 -311.62c24.14,3.21 47.14,8.96 69.16,16.99 21.97,8.03 42.02,18.65 59.84,31.7 17.92,13.11 32.85,28.76 44.71,47.15 11.76,18.18 19.63,39.27 23.36,63.05 1.56,10 2.8,19.17 3.58,27.51 0.67,8.39 0.78,15.65 0.21,21.91l33.72 0c0.37,-7.3 0,-15.95 -0.88,-26.05 -0.98,-10.11 -2.54,-21.09 -4.71,-32.75 -5.65,-27.92 -16.17,-53.41 -31.81,-76.41 -15.54,-22.95 -35.54,-42.8 -59.94,-59.58 -24.41,-16.63 -52.54,-29.48 -84.45,-38.55 -31.91,-9.06 -67.04,-13.68 -105.33,-13.78 -30.82,0.1 -58.28,3.52 -82.37,10.31 -24.09,6.89 -44.5,16.53 -61.08,28.91 -16.68,12.43 -29.43,26.99 -38.08,43.88 -8.65,16.89 -13,35.59 -13,55.8 0.1,18.23 3,35.02 8.96,50.15 5.8,15.07 13.99,28.7 24.4,40.36 10.41,11.76 22.54,21.65 36.37,29.79 13.78,8.13 28.65,14.29 44.66,18.44 16.06,4.2 32.48,6.37 49.47,6.37 18.91,0 36.84,-2.9 53.73,-8.55 16.78,-5.59 31.81,-13.98 44.86,-24.92 13.01,-10.93 23.32,-24.5 30.73,-40.46 7.46,-15.95 11.24,-34.29 11.45,-54.91 -0.11,-24.1 -5.19,-45.8 -15.24,-64.97 -9.89,-19.17 -24.03,-35.75 -42.32,-49.53l0 -1.86zm-215.78 104.49c0.1,-16.94 3.93,-31.91 11.55,-44.86 7.72,-13.06 18.7,-23.89 32.95,-32.75 14.2,-8.86 31.4,-15.54 51.29,-20.1 19.89,-4.51 42.22,-6.78 66.83,-6.78 6.06,0 12.75,1.76 19.84,5.23 7.1,3.42 14.04,8.39 21.14,14.76 6.94,6.48 13.37,14.2 19.17,23.06 5.75,8.96 10.41,18.86 13.89,29.94 3.52,10.93 5.28,22.75 5.38,35.23 -0.1,19.48 -4.76,36.58 -13.93,51.19 -9.28,14.61 -22.23,25.85 -39.01,33.98 -16.69,8.14 -36.37,12.28 -59.01,12.39 -18.76,0 -35.96,-2.49 -51.71,-7.31 -15.85,-4.77 -29.58,-11.66 -41.29,-20.62 -11.71,-8.86 -20.72,-19.58 -27.3,-31.96 -6.48,-12.44 -9.69,-26.22 -9.79,-41.4z"></path>  <path class="fil1" d="M5463.09 1003.62l545.74 -945.34 11164.39 -2.74 -272.87 472.64c-150.09,259.97 -556.58,472.8 -903.22,473.01l-10534.04 2.43z"></path>  <path class="fil1" d="M3683.86 4488.42l-1121.07 0 -2562.79 -4433.15 560.56 0c308.31,0 706.35,252.25 884.57,560.51l2238.73 3872.64z"></path>  <path class="fil1" d="M2562.79 4488.42l1121.07 0 2562.78 -4433.15 -560.56 0c-308.31,0 -706.35,252.25 -884.57,560.51l-2238.72 3872.64z"></path>  <path class="fil0" d="M13990.71 4527.59l0 -3152.05 2880.88 0 0 533.57 -2054.59 0 0 698.63 2054.59 0 0 530.62 -2054.59 0 0 857.89 2054.59 0 0 531.34 -2880.88 0zm-5372.37 0l0 -3126.35 826.24 0 0 2595.01 1665.31 0 0 531.34 -2491.55 0zm-1698.05 -1246.86l-564.14 -1169.83 -552.74 1169.83 1116.88 0zm1521.91 1246.86l-899.6 0 -357.37 -716.3 -1636.25 0 -337.37 716.3 -876.74 0 1594.33 -3152.05 873.9 0 1639.1 3152.05zm2862.33 0l0 -3126.35 826.23 0 0 2595.01 1665.32 0 0 531.34 -2491.55 0z"></path>  <path class="fil0" d="M2951.91 6255.69l-389.12 -1128.48 257.33 0 239.81 844.21 244.54 -844.21 254.17 0 -384.42 1128.48 -222.31 0zm646.52 -925.8l0 -202.99 223.08 0 0 202.99 -223.08 0zm0 925.8l0 -832.96 223.08 0 0 832.96 -223.08 0zm585.32 0l-299.71 -832.96 246.87 0 170.76 597.6 172.36 -597.6 235.36 0 -298.1 832.96 -227.54 0zm1061.03 -103.3c-28.24,43.15 -64.87,76.36 -110.35,99.11 -45.54,22.74 -98.33,33.98 -158.74,33.98 -80.82,0 -142.84,-23 -186.51,-69.06 -43.68,-46 -65.64,-111.38 -65.64,-196.09 0,-78.75 21.71,-138.64 65.38,-179.93 43.67,-41.6 115.84,-69.84 216.56,-85.27 23,-3.42 53.1,-7.57 90.51,-12.02 94.65,-12.33 141.69,-39.79 141.69,-82.12 0,-33.78 -10.41,-57.82 -31.34,-72.48 -20.93,-14.35 -56.01,-21.71 -104.92,-21.71 -44.96,0 -79.47,8.91 -103.56,26.68 -24.04,18.09 -36.06,43.42 -36.06,76.63l0 12.28 -208.42 0 0 -15.39c0,-85.28 30.05,-152.21 90.46,-200.86 60.15,-48.91 143.61,-73.26 249.76,-73.26 116.36,0 205.83,20.16 267.8,60.41 62.01,40.57 93.1,98.64 93.1,174.75l0 473.58c0,34.81 3.67,60.66 10.72,77.97 7.1,16.99 19.12,29.79 36.11,38.44l0 37.66 -232.25 0c-7.57,-14.4 -13.32,-30.1 -17.52,-47.61 -4.19,-17.25 -6.26,-35.85 -6.78,-55.69zm-3.94 -306.81c-36.37,16.99 -78.18,30.62 -125.27,40.83 -47.35,10.2 -71.91,15.44 -73.21,15.95 -39.53,11.25 -66.93,25.39 -82.63,42.12 -15.44,17 -23.31,40.26 -23.31,69.79 0,30.62 9.94,55.17 29.84,73.25 20.1,18.03 46.78,27.2 80.56,27.2 60.41,0 107.71,-16.99 142.26,-50.98 34.51,-34.03 51.76,-80.3 51.76,-139.15l0 -79.01zm816.49 -718.37l216.82 0 0 399.08c27.46,-43.42 62.22,-76.37 103.82,-98.59 41.6,-22.23 88.96,-33.21 142.01,-33.21 100.71,0 183.09,41.55 246.91,124.44 63.78,82.95 95.69,190.92 95.69,323.8 0,131.8 -31.91,238.27 -95.69,319.29 -63.82,81.39 -147.29,121.91 -249.76,121.91 -53.62,0 -100.46,-11.24 -139.94,-33.78 -39.47,-22.43 -75.58,-58.03 -107.76,-107.19l0 112.73 -212.1 0 0 -1128.48zm583.72 706.35c0,-76.62 -16.21,-136.77 -48.39,-180.44 -32.12,-43.68 -76.1,-65.65 -132.31,-65.65 -59.38,0 -105.12,21.45 -137.55,64.09 -32.44,42.64 -48.65,103.31 -48.65,182 0,84.76 15.44,149.05 46.32,193.04 30.82,43.93 76.05,65.9 135.16,65.9 60.41,0 106.21,-21.97 137.81,-66.21 31.66,-44.19 47.61,-108.49 47.61,-192.73zm844.21 169.21l222.31 0c-22.48,87.86 -67.71,156.66 -136,206.35 -68.23,49.94 -151.38,74.81 -249.45,74.81 -120.61,0 -216.04,-40.52 -286.65,-121.34 -70.36,-81.07 -105.69,-190.65 -105.69,-329.29 0,-136.25 34.81,-243.75 104.13,-322.45 69.58,-78.7 164.49,-117.97 285.05,-117.97 127.91,0 226.45,38.76 296.03,116.16 69.32,77.4 104.08,187.49 104.08,330.53 0,15.96 0,27.72 -0.26,35.85 -0.26,7.83 -1.03,15.44 -2.07,22.49l-556.26 0c3.16,65.38 19.12,114.55 47.87,147.75 28.75,33.21 70.35,49.69 124.44,49.69 38.5,0 69.84,-7.57 94.19,-22.49 24.56,-15.18 43.93,-38.44 58.28,-70.09zm-324.78 -251.32l327.94 0c-2.07,-56.21 -16.99,-98.85 -44.71,-128.38 -27.97,-29.33 -68.02,-43.94 -120.04,-43.94 -48.38,0 -86.57,14.87 -114.54,44.45 -27.72,29.54 -43.94,72.17 -48.65,127.87zm663.24 504.24l0 -832.96 211.59 0 0 92.06c31.08,-38.18 65.9,-67.25 104.08,-86.57 38.44,-19.38 80.82,-29.07 127.34,-29.07 52.59,0 97.56,9.95 134.7,29.59 37.41,19.63 69.84,50.46 97.3,92.84 29.27,-40.78 63.52,-71.4 103.56,-91.81 39.74,-20.41 84.19,-30.62 133.36,-30.62 83.67,0 150.14,24.61 199.3,73.52 48.91,49.16 73.47,115.84 73.47,200.86l0 582.16 -219.93 0 0 -536.42c0,-40.25 -10.98,-71.65 -32.69,-93.87 -21.71,-22.23 -51.81,-33.21 -90.77,-33.21 -43.41,0 -77.92,14.09 -103.3,42.64 -25.65,28.23 -38.44,66.93 -38.44,115.84l0 505.02 -217.6 0 0 -534.81c0,-40.82 -10.72,-72.48 -31.91,-94.96 -21.19,-22.49 -50.72,-33.73 -89.16,-33.73 -43.42,0 -77.66,14.35 -103.05,42.9 -25.38,28.49 -37.92,67.71 -37.92,117.13l0 503.47 -219.93 0zm1342.92 265.16l0 -89.68c42.89,-12.28 74.55,-31.14 95.22,-56.78 20.41,-25.6 30.57,-58.55 30.57,-99.63l0 -19.07 -125.79 0 0 -230.7 232.25 0 0 221.53c0,76.11 -19.63,137.29 -58.59,183.87 -39.22,46.52 -97.04,76.62 -173.66,90.46zm1045.84 -265.16l-299.71 -832.96 246.92 0 170.76 597.6 172.36 -597.6 235.37 0 -298.16 832.96 -227.54 0zm588.23 -925.8l0 -202.99 223.09 0 0 202.99 -223.09 0zm0 925.8l0 -832.96 223.09 0 0 832.96 -223.09 0zm585.27 0l-299.7 -832.96 246.91 0 170.76 597.6 172.37 -597.6 235.36 0 -298.16 832.96 -227.54 0zm1061.08 -103.3c-28.28,43.15 -64.86,76.36 -110.4,99.11 -45.49,22.74 -98.33,33.98 -158.74,33.98 -80.82,0 -142.78,-23 -186.46,-69.06 -43.67,-46 -65.64,-111.38 -65.64,-196.09 0,-78.75 21.71,-138.64 65.38,-179.93 43.68,-41.6 115.85,-69.84 216.56,-85.27 23,-3.42 53.05,-7.57 90.46,-12.02 94.7,-12.33 141.74,-39.79 141.74,-82.12 0,-33.78 -10.46,-57.82 -31.34,-72.48 -20.93,-14.35 -56,-21.71 -104.91,-21.71 -44.97,0 -79.47,8.91 -103.56,26.68 -24.04,18.09 -36.06,43.42 -36.06,76.63l0 12.28 -208.43 0 0 -15.39c0,-85.28 30.05,-152.21 90.46,-200.86 60.15,-48.91 143.56,-73.26 249.77,-73.26 116.36,0 205.78,20.16 267.79,60.41 61.96,40.57 93.1,98.64 93.1,174.75l0 473.58c0,34.81 3.68,60.66 10.72,77.97 7.05,16.99 19.12,29.79 36.12,38.44l0 37.66 -232.26 0c-7.56,-14.4 -13.37,-30.1 -17.51,-47.61 -4.2,-17.25 -6.27,-35.85 -6.79,-55.69zm-3.94 -306.81c-36.36,16.99 -78.23,30.62 -125.27,40.83 -47.35,10.2 -71.91,15.44 -73.25,15.95 -39.48,11.25 -66.94,25.39 -82.64,42.12 -15.44,17 -23.26,40.26 -23.26,69.79 0,30.62 9.95,55.17 29.84,73.25 20.1,18.03 46.79,27.2 80.51,27.2 60.41,0 107.76,-16.99 142.32,-50.98 34.5,-34.03 51.75,-80.3 51.75,-139.15l0 -79.01z"></path>  <path class="fil0" d="M13539.15 6255.69l-389.13 -1128.48 257.33 0 239.82 844.21 244.54 -844.21 254.22 0 -384.47 1128.48 -222.31 0zm1061.03 -103.3c-28.24,43.15 -64.86,76.36 -110.35,99.11 -45.49,22.74 -98.33,33.98 -158.74,33.98 -80.82,0 -142.78,-23 -186.46,-69.06 -43.67,-46 -65.64,-111.38 -65.64,-196.09 0,-78.75 21.71,-138.64 65.38,-179.93 43.68,-41.6 115.85,-69.84 216.51,-85.27 23.05,-3.42 53.1,-7.57 90.51,-12.02 94.65,-12.33 141.74,-39.79 141.74,-82.12 0,-33.78 -10.46,-57.82 -31.39,-72.48 -20.93,-14.35 -55.95,-21.71 -104.86,-21.71 -44.97,0 -79.53,8.91 -103.57,26.68 -24.09,18.09 -36.11,43.42 -36.11,76.63l0 12.28 -208.42 0 0 -15.39c0,-85.28 30.1,-152.21 90.51,-200.86 60.15,-48.91 143.56,-73.26 249.71,-73.26 116.42,0 205.84,20.16 267.85,60.41 61.96,40.57 93.1,98.64 93.1,174.75l0 473.58c0,34.81 3.63,60.66 10.72,77.97 7.05,16.99 19.07,29.79 36.06,38.44l0 37.66 -232.2 0c-7.62,-14.4 -13.37,-30.1 -17.51,-47.61 -4.2,-17.25 -6.32,-35.85 -6.84,-55.69zm-3.89 -306.81c-36.37,16.99 -78.23,30.62 -125.27,40.83 -47.35,10.2 -71.96,15.44 -73.25,15.95 -39.48,11.25 -66.94,25.39 -82.64,42.12 -15.44,17 -23.26,40.26 -23.26,69.79 0,30.62 9.9,55.17 29.79,73.25 20.15,18.03 46.83,27.2 80.56,27.2 60.41,0 107.76,-16.99 142.27,-50.98 34.55,-34.03 51.8,-80.3 51.8,-139.15l0 -79.01zm373.44 410.11l0 -1128.48 223.08 0 0 1128.48 -223.08 0zm388.92 0l0 -1128.48 223.08 0 0 1128.48 -223.08 0zm894.67 -252.92l222.31 0c-22.49,87.86 -67.72,156.66 -136,206.35 -68.23,49.94 -151.38,74.81 -249.51,74.81 -120.55,0 -215.98,-40.52 -286.6,-121.34 -70.35,-81.07 -105.69,-190.65 -105.69,-329.29 0,-136.25 34.82,-243.75 104.14,-322.45 69.52,-78.7 164.49,-117.97 285.04,-117.97 127.87,0 226.46,38.76 296.04,116.16 69.31,77.4 104.08,187.49 104.08,330.53 0,15.96 0,27.72 -0.26,35.85 -0.26,7.83 -1.04,15.44 -2.07,22.49l-556.27 0c3.11,65.38 19.07,114.55 47.87,147.75 28.76,33.21 70.31,49.69 124.45,49.69 38.44,0 69.83,-7.57 94.18,-22.49 24.56,-15.18 43.94,-38.44 58.29,-70.09zm-324.79 -251.32l327.95 0c-2.13,-56.21 -16.99,-98.85 -44.71,-128.38 -27.98,-29.33 -68.03,-43.94 -120.04,-43.94 -48.39,0 -86.57,14.87 -114.55,44.45 -27.72,29.54 -43.93,72.17 -48.65,127.87zm766.81 190.13l-59.89 -507.87 0 -306.5 236.14 0 0 306.5 -59.89 507.87 -116.36 0zm-56.78 314.11l0 -225.98 227.54 0 0 225.98 -227.54 0z"></path> </g></svg>