<svg width="284" height="233" viewBox="0 0 284 233" fill="none" xmlns="http://www.w3.org/2000/svg">
<path d="M116.512 3.35866C112.556 6.55889 112.335 7.82729 112.335 27.2391L113 74.5V91.5C112.984 100.987 113.193 109.886 113.193 112.371L113.22 126.763V210.427C113.22 225.658 114.769 229.027 123.029 231.753C130.65 234.268 136.674 232.987 141.475 227.832C144.919 224.135 145.063 221.789 145.063 168.788V33.5918L179.117 33.6095C211.119 33.6254 213.709 33.8766 222.089 37.7792C247.689 49.7009 253.932 80.6133 234.752 100.49C225.109 110.486 219.055 112.386 198.778 111.781C181.144 111.253 180.783 111.324 177.107 115.998C175.05 118.613 173.367 122.082 173.367 123.706C173.367 128.095 181.962 140.846 195.682 156.815C213.481 177.531 229.806 197.268 238.472 208.551C249.055 222.327 256.662 230.014 261.633 231.951C270.982 235.595 283.049 226.656 283.049 216.086C283.049 211.515 275.975 201.902 248.86 169.638L226.17 142.636L236.93 137.752C250.472 131.605 264.651 117.572 271.571 103.47C276.367 93.6937 276.783 91.3144 276.818 73.3673C276.855 54.8771 276.56 53.2761 271.046 42.0656C263.94 27.6195 252.924 15.9632 240.337 9.56804C223.204 0.864285 216.755 0.0239753 166.93 0.000977558C124.03 -0.0184821 120.386 0.223897 116.512 3.35866Z" fill="#142640"/>
<path d="M40.6883 39.1237H112.502L112.876 65.6595H40.6883V39.1237Z" fill="#142640"/>
<path d="M45.9955 51.5071C45.9955 64.2084 35.699 74.5048 22.9977 74.5048C10.2964 74.5048 0 64.2084 0 51.5071C0 38.8058 10.2964 28.5093 22.9977 28.5093C35.699 28.5093 45.9955 38.8058 45.9955 51.5071Z" fill="#142640"/>
<path d="M80.221 122.462L44.8133 122.609C42.6042 122.619 40.8059 120.835 40.7967 118.626L40.747 106.648C40.7378 104.439 42.5213 102.64 44.7304 102.631L80.1381 102.484L80.221 122.462Z" fill="#142640"/>
<path d="M74.8619 111.912C74.817 101.113 83.5357 92.3213 94.3355 92.2765C105.135 92.2316 113.143 100.7 113.188 111.5C113.233 122.3 105.298 131.341 94.4979 131.386C83.698 131.431 74.9067 122.712 74.8619 111.912Z" fill="#FFBB00"/>
<path d="M74.8619 168.522C74.817 157.723 83.5357 148.931 94.3355 148.886C105.135 148.842 113.175 157.795 113.22 168.595C113.264 179.395 105.298 187.951 94.4979 187.996C83.698 188.041 74.9067 179.322 74.8619 168.522Z" fill="#FFBB00"/>
</svg>
