<svg width="385" height="347" viewBox="0 0 385 347" fill="none" xmlns="http://www.w3.org/2000/svg">
<path d="M385 0H254.622L182.53 119.665L246.952 230.124L385 0Z" fill="url(#paint0_linear_59_37)"/>
<path d="M0 0H116.574L246.952 230.124L236.215 247H144.183L0 0Z" fill="black"/>
<path d="M61.2045 291.455L72.4545 326.818H72.8864L84.1591 291.455H95.0682L79.0227 338H66.3409L50.2727 291.455H61.2045ZM110.511 291.455V338H100.67V291.455H110.511ZM118.608 338V291.455H136.972C140.502 291.455 143.509 292.129 145.994 293.477C148.479 294.811 150.373 296.667 151.676 299.045C152.994 301.409 153.653 304.136 153.653 307.227C153.653 310.318 152.987 313.045 151.653 315.409C150.32 317.773 148.388 319.614 145.858 320.932C143.343 322.25 140.297 322.909 136.722 322.909H125.017V315.023H135.131C137.025 315.023 138.585 314.697 139.812 314.045C141.055 313.379 141.979 312.462 142.585 311.295C143.206 310.114 143.517 308.758 143.517 307.227C143.517 305.682 143.206 304.333 142.585 303.182C141.979 302.015 141.055 301.114 139.812 300.477C138.57 299.826 136.994 299.5 135.085 299.5H128.449V338H118.608ZM160.045 338V291.455H191.409V299.568H169.886V310.659H189.795V318.773H169.886V329.886H191.5V338H160.045ZM199.233 338V291.455H217.597C221.112 291.455 224.112 292.083 226.597 293.341C229.097 294.583 230.998 296.348 232.301 298.636C233.619 300.909 234.278 303.583 234.278 306.659C234.278 309.75 233.612 312.409 232.278 314.636C230.945 316.848 229.013 318.545 226.483 319.727C223.968 320.909 220.922 321.5 217.347 321.5H205.051V313.591H215.756C217.634 313.591 219.195 313.333 220.438 312.818C221.68 312.303 222.604 311.53 223.21 310.5C223.831 309.47 224.142 308.189 224.142 306.659C224.142 305.114 223.831 303.811 223.21 302.75C222.604 301.689 221.672 300.886 220.415 300.341C219.172 299.78 217.604 299.5 215.71 299.5H209.074V338H199.233ZM224.369 316.818L235.938 338H225.074L213.756 316.818H224.369ZM251.074 291.455V338H241.233V291.455H251.074ZM284.42 304.841C284.239 303.008 283.458 301.583 282.08 300.568C280.701 299.553 278.83 299.045 276.466 299.045C274.86 299.045 273.504 299.273 272.398 299.727C271.292 300.167 270.443 300.78 269.852 301.568C269.277 302.356 268.989 303.25 268.989 304.25C268.958 305.083 269.133 305.811 269.511 306.432C269.905 307.053 270.443 307.591 271.125 308.045C271.807 308.485 272.595 308.871 273.489 309.205C274.383 309.523 275.337 309.795 276.352 310.023L280.534 311.023C282.564 311.477 284.428 312.083 286.125 312.841C287.822 313.598 289.292 314.53 290.534 315.636C291.777 316.742 292.739 318.045 293.42 319.545C294.117 321.045 294.473 322.765 294.489 324.705C294.473 327.553 293.746 330.023 292.307 332.114C290.883 334.189 288.822 335.803 286.125 336.955C283.443 338.091 280.208 338.659 276.42 338.659C272.663 338.659 269.39 338.083 266.602 336.932C263.83 335.78 261.663 334.076 260.102 331.818C258.557 329.545 257.746 326.735 257.67 323.386H267.193C267.299 324.947 267.746 326.25 268.534 327.295C269.337 328.326 270.405 329.106 271.739 329.636C273.087 330.152 274.61 330.409 276.307 330.409C277.973 330.409 279.42 330.167 280.648 329.682C281.89 329.197 282.852 328.523 283.534 327.659C284.216 326.795 284.557 325.803 284.557 324.682C284.557 323.636 284.246 322.758 283.625 322.045C283.019 321.333 282.125 320.727 280.943 320.227C279.777 319.727 278.345 319.273 276.648 318.864L271.58 317.591C267.655 316.636 264.557 315.144 262.284 313.114C260.011 311.083 258.883 308.348 258.898 304.909C258.883 302.091 259.633 299.629 261.148 297.523C262.678 295.417 264.777 293.773 267.443 292.591C270.11 291.409 273.14 290.818 276.534 290.818C279.989 290.818 283.004 291.409 285.58 292.591C288.17 293.773 290.186 295.417 291.625 297.523C293.064 299.629 293.807 302.068 293.852 304.841H284.42ZM301.108 338V291.455H332.472V299.568H310.949V310.659H330.858V318.773H310.949V329.886H332.562V338H301.108Z" fill="black"/>
<defs>
<linearGradient id="paint0_linear_59_37" x1="177.917" y1="-3.93185e-06" x2="147.949" y2="217.457" gradientUnits="userSpaceOnUse">
<stop stop-color="#EA1B21"/>
<stop offset="1" stop-color="#AA1113"/>
</linearGradient>
</defs>
</svg>
